<svg id="svg" version="1.0" xmlns="http://www.w3.org/2000/svg" width="300.000000pt" height="147.000000pt" viewBox="0 0 300.000000 147.000000" preserveAspectRatio="xMidYMid meet">
    <defs>
        <linearGradient id="gradient" x1="0%" y1="0%" x2="100%" y2="100%">
            <stop offset="0%" style="stop-color:#10B981;stop-opacity:1" />
            <stop offset="100%" style="stop-color:#3B82F6;stop-opacity:1" />
        </linearGradient>
    </defs>
    <g transform="translate(0.000000,147.000000) scale(0.100000,-0.100000)" stroke="url(#gradient)" fill="none">

        <path id="outer-triangle" fill="white" d="M1468 1333 c-9 -10 -37 -58 -63 -108 -41 -76 -91 -166 -240 -430 -12 -22 -46 -85 -75 -140 -29 -55 -94 -174 -144 -265 -125 -225 -132 -244 -102 -269 10 -8 146 -12 480 -14 l467 -3 -6 26 c-4 14 -20 49 -36 78 l-30 52 -282 1 c-155 1 -294 0 -309 -1 -14 -1 -29 3 -32 8 -8 13 50 129 219 437 144 263 181 325 196 325 8 0 62 -90 166 -280 98 -177 109 -198 161 -283 23 -37 42 -69 42 -71 0 -2 17 -33 39 -68 21 -35 54 -95 74 -134 19 -38 43 -76 51 -83 9 -8 39 -14 68 -14 41 -1 54 3 69 22 17 21 17 25 3 59 -14 34 -179 333 -246 445 -15 26 -28 49 -28 52 0 2 -24 48 -53 102 -30 54 -71 130 -92 168 -110 204 -200 363 -218 383 -24 26 -58 29 -79 5z"/>

        <path id="slash" fill="white" d="M2327 943 c-5 -8 -65 -214 -116 -398 -40 -145 -40 -157 7 -192 20 -15 40 -32 43 -37 10 -13 14 -1 48 124 52 192 60 222 87 315 14 50 28 97 31 106 6 21 -90 99 -100 82z"/>

        <path id="right-arrow" fill="white" d="M493 761 c-248 -146 -287 -172 -291 -194 -5 -26 11 -41 101 -93 167 -95 323 -188 364 -216 60 -40 73 -38 72 15 -3 100 6 92 -277 250 -29 16 -51 34 -49 40 2 6 73 52 158 102 137 80 154 93 157 119 5 42 -7 96 -21 96 -7 -1 -103 -54 -214 -119z"/>

        <path id="left-arrow" fill="white" d="M2489 783 c-27 -73 -27 -74 65 -138 86 -60 100 -78 70 -89 -9 -3 -61 -36 -115 -73 -89 -59 -99 -70 -104 -102 -3 -20 -10 -53 -16 -74 -6 -22 -8 -41 -6 -44 3 -2 27 12 55 31 27 20 53 36 57 36 4 0 25 13 48 29 23 16 101 67 173 114 72 47 135 90 138 96 4 6 3 18 -2 28 -10 16 -326 213 -343 213 -5 0 -14 -12 -20 -27z"/>

        <path id="inner-triangle" fill="white" d="M1441 612 c-22 -43 -54 -103 -71 -133 -47 -79 -43 -81 135 -80 83 1 154 6 159 11 4 4 -24 68 -65 144 -92 170 -100 173 -158 58z"/>
    </g>
</svg>
